<svg xmlns="http://www.w3.org/2000/svg" viewBox="0 0 50 50"><path d="M14.7 43.3c-3.8-.6-7.3-1.9-10.2-4.5-2.3-2-3.8-4.6-4.3-7.6L0 28.5v-7.8c0-4.3 2.7-7.6 7.1-8.7 2.6-.7 5.3-.6 8.1-.4 3.7.2 7.6.1 11.2-1.4l4.8-2.1c3.3-1.5 7-2.1 10.5-1.5 1.4.2 2.8.5 4 1.1 2.7 1.3 4.2 3.4 4.2 6.4v8.4a14 14 0 0 1-2.5 7.3 30.5 30.5 0 0 1-23.9 13.7 51 51 0 0 1-3.9.2l-4.9-.4zM1.6 30.9c.4 2.7 1.9 4.9 3.9 6.8 2.5 2.2 5.4 3.4 8.6 4a36.2 36.2 0 0 0 19.2-2 29 29 0 0 0 12.8-10.4 13 13 0 0 0 2.3-9.4l-.7 1.2a31 31 0 0 1-13.4 11.4 34 34 0 0 1-13 2.8c-3.4.2-6.9-.2-10.2-1.2A16 16 0 0 1 1.7 27l-.3-.2c.1 1.4 0 2.8.2 4.1zm5.1-17.2c-2.9 1-4.7 2.9-5.1 6a10 10 0 0 0 1.5 6.7c2.2 3.5 5.4 5.5 9.3 6.5a34 34 0 0 0 14.9.2 28.8 28.8 0 0 0 20.3-15.2c.4-1 .6-2 .8-3 .4-3-1-5.3-3.9-6.2a16.7 16.7 0 0 0-12.8.6c-1.9 1-3.9 1.8-6 2.5a25.9 25.9 0 0 1-10.7.9h-3c-1.7.2-3.6.4-5.3 1zm8.4 26.1c-.5-.1-.7-.4-.7-.7v-.2c.1-.3.4-.6.7-.6h.3c1.6.4 3.2.5 4.8.5 1.6 0 3.2-.2 4.8-.4h.3l.4-.1h.1c.4 0 .7.2.7.6v.2c0 .3-.2.6-.5.7h-.1l-2.7.4-3 .2c-1.7 0-3.4-.2-5.1-.6zm13.4-1.5c0-.1 0-.1 0 0 0-.3.1-.7.3-.8l3.3-1.1h.3l.2.1h.1l.1.1.1.1v.3l-.2.6-3.5 1.3c-.3-.2-.7-.4-.7-.6zm-6.8-8.2-4.5-2.9c-.3-.3-.8-.3-1.2-.1l-4.3 1.6c-.4.2-.8 0-1-.4-.2-.4 0-.8.4-1h.1l.3-.1 3-1.1.6-.2-3.3-2.1h-.5l-3.9 1.4c-.4.2-.8 0-1-.3v-.1c-.1-.4.1-.7.5-.9l.5-.2 2.7-1-.9-.6c-.4-.3-.6-.7-.3-1.1s.6-.4 1.1-.2l.2.1c.6.3 1.1.9 1.7 1 .6.1 1.2-.4 1.8-.6l3.8-1.4-.5-.3-4.2-2.7c-.6-.4-.6-1.1 0-1.3.3-.1.6 0 .9.2l5.1 3.3c.3.2.6.2.9.1l4.4-1.6-1.6-1.1c-.5-.3-.7-.7-.4-1.1.3-.4.7-.4 1.2-.1l2.3 1.5.6.1 4.6-1.6-1-.7c-.5-.3-.6-.7-.4-1.1s.7-.4 1.1-.1l1.7 1.1.8.1 2.2-.8c.5-.2.9 0 1.1.4.1.4-.1.8-.6 1l-1.5.5.4.3 2.6 1.7c.3.2.6.2.9.1L43 16l.2-.1c.4-.2.8 0 1 .3v.1c.2.4 0 .8-.5 1l-3.8 1.4-.7.3 1.2.8 1.2.8c.5.3.6.8.4 1.1-.2.4-.7.4-1.2.1l-3-2c-.2-.2-.6-.2-.8-.1l-4.5 1.6 2.3 1.4 2.2 1.4c.5.3.6.7.4 1.1-.2.4-.7.5-1 .3l-.1-.1-4.9-3.1a1 1 0 0 0-1.1-.1L26 23.7l.5.3 2.8 1.8c.2.2.6.2.8.1l2.4-.9c.5-.2.9 0 1.1.4.1.4-.1.8-.6 1l-1.7.6.3.3c.3.2.4.6.1.9-.2.3-.6.4-1 .2l-.4-.2c-.5-.6-1.4-.7-2.1-.2l-1.6.6c-.6.2-1 .1-1.2-.3-.2-.4.1-.8.7-1l1.6-.6-1.8-1.2c-.6-.4-1.2-1-1.9-1.1-.6-.1-1.3.4-2 .6l-3.4 1.2-.1.1.5.3 3.5 2.2c.7.4.8.8.6 1.2-.1.2-.3.3-.5.3-.4.1-.7 0-.9-.2zm-2.9-8.9-5.4 1.9 3.4 2.1c.1.1.4 0 .5-.1l3.7-1.3 1.6-.6-3.4-2.1H19l-.2.1zm4.9-1.8-2.9 1 3.3 2.1h.5l2.5-.9 2-.7-1.7-1.1c-.6-.4-1.2-1-1.8-1h-.1l-1.8.6zm8.3-3-4.1 1.5-.4.2 2.7 1.7c.5.4 1.1.5 1.7.2l4-1.5-3.3-2.1-.2-.1-.4.1zM6.9 20.6a10 10 0 0 1-1.7-1.1c-.3-.2-.3-.6-.1-.9.2-.3.6-.4.9-.2l1.5 1 .3.4c.1.4-.2.8-.7.9l-.2-.1zm30.7-7c-.2-.4 0-.8.4-.9h.1l3.9-1.4c.6-.2 1 .2 1 .9l-.5.5-3.9 1.4-.3.1c-.3-.1-.6-.3-.7-.6z"></path></svg>