<svg xmlns="http://www.w3.org/2000/svg" viewBox="0 0 50 50"><path d="m33.4 49.5-7.9-4.9a1 1 0 0 0-1.3 0l-7.8 4.9c-1.3.9-3.1.5-3.9-.8a3 3 0 0 1-.5-1.3c-.1-1.2.5-2.4 1.6-2.9l5.6-3 .7-.4-2.8-1.8c-.6-.4-1.3-.6-1.7-1.4-.2-.5-1-.6-1.5-1-.5-.5-1.3-.5-1.9-.1-1.3.7-2.8.8-4.2.3-2.8-.8-5.2-2.8-6.5-5.4a6 6 0 0 1-.6-1.9c-.2-2.1 1.1-3.6 3.5-4 2.8-.4 5.6.4 7.8 2.1a6 6 0 0 1 2.6 5.1c0 .2.1.4.3.5l2 1.1c.1.1.2.2.3.1.8-.3 1.4.3 2 .6l5.1 2.7c.3.2.7.2 1 0 1.9-1.1 3.8-2.2 5.8-3.1 1.3-.5 2.5-1.1 3.6-1.8.3-.1.5-.5.5-.8-.1-1.8.9-3.5 2.6-4.2l6.6-3.2c.5-.2.9-.2 1.2.3.2.4 0 .9-.5 1.1l-4.4 2.1-.5.3c-.1.1-.2.3-.1.5l.5.2c.2-.1.5-.1.7-.3l4.3-2.4c.3-.1.6-.1.9.1.2.2.3.6.2.9 0 .2-.3.4-.5.5L42 30.6l-.5.3c-.1.2-.2.4-.1.6.2.1.4.2.6.1l1-.5 3.7-2.2c.6-.3 1-.3 1.2.2.3.4.1.8-.5 1.2l-3.9 2.3-.5.3c-.2.2-.5.6-.5.8.3.4.6.2.9 0l1.9-1.3 2.3-1.5c.4-.3.9-.4 1.2.1s.2.9-.3 1.2l-6.2 4.1a4.4 4.4 0 0 1-5.2-.2l-2.7 1.6-.2.1c-.4 1.2-1.7 1.4-2.5 2L29.8 41l6.2 3.4a3 3 0 0 1 1.7 2.2c.2 1.1-.3 2.2-1.3 2.8a2 2 0 0 1-1.4.6 3 3 0 0 1-1.6-.5zm-5.3-7.3-1.8 1.1 7.9 4.9c.6.4 1.4.2 1.7-.3l.1-.1c.3-.6.1-1.4-.5-1.7l-.1-.1-6.8-3.7-.4-.1h-.1zm3.3-5.4L18 44l-3.7 2c-.6.3-.9 1-.6 1.7l.1.1c.4.6 1.2.8 1.8.4l.4-.3 16.1-10 .5-.3-.6-1.1-.6.3zm-14.1.8 3 1.9c1.4.9 1.4.9 2.9 0l.1-.1-5.3-2.8-.7 1zm-3.9-2.7 2.2 1.2.5.3.1-.2-.5-.3-2.1-1.2c-.5-.2-.7-.7-.6-1.2.3-1.3-.2-2.7-1.2-3.6a8.3 8.3 0 0 0-7-2.5c-2.3.3-3 1.6-1.9 3.7a10 10 0 0 0 4.3 4.1c1.8.9 3.6 1 5.3-.4l.5-.1.4.2zm20.4 1.3h.4l2.5-1.4c.5-.4 1.2-.3 1.6.1.9.9 2.2 1 3.2.3l-.5-1.5-.3-.4c-.5-.4-.9-1-1-1.6l-.2-.5-1.2-1.2a2.8 2.8 0 0 0-1.4 3.1c.2.5-.1 1.1-.6 1.3L33.5 36v.2h.3zm-17.7-5.1c-1.1 0-1.3-.2-1.3-1.3v-5.2c.1-1-.5-1.9-1.4-2.3-1.6-.8-3-2-4-3.5a9.2 9.2 0 0 1 3-12.7A7.8 7.8 0 0 1 16 4.8c.5 0 1-.3 1.2-.8a9.5 9.5 0 0 1 15.6.1c.2.3.5.5.9.5 4.6.7 7.7 3.8 8.1 8.4.5 3.5-1.3 7-4.4 8.7a3.5 3.5 0 0 0-2 3.7v4.1c0 1.2-.2 1.4-1.4 1.4h-8.9v.1l-9 .1zm.3-1.6h17.5v-4H16.4v4zm4.9-5.7h12.1c.4 0 .7-.1.7-.5 0-.7.4-1.3.9-1.7l1.7-1a7.8 7.8 0 0 0 2.8-10.5c-1.1-2-3-3.4-5.2-3.8l.4 2.7c.1 1-.1 1.3-.7 1.4-.6 0-.8-.3-.9-1.3a8 8 0 0 0-15.6-2.3L17 9.5c-.1.7-.6 1-1.1.7-.3-.2-.4-.5-.4-.9l.4-3a7.7 7.7 0 0 0-6.1 9v.2c.5 2.3 2 4.3 4.2 5.3 1.2.6 2.4 1.3 2.4 2.9h3.3l1.6.1z"></path></svg>