<svg xmlns="http://www.w3.org/2000/svg" viewBox="0 0 50 50"><path d="M48.7 48.9H1.4c-.5.1-1.1-.2-1.3-.7v-3.4l.3-.8a3.5 3.5 0 0 1 3.1-2.2h.4v-1.5a21.1 21.1 0 0 1 16.7-22l.4-.1c-.3-1.5.2-3.1 1.3-4.1.8-.7 1.9-1.1 3-1.1 2.3.1 4.1 2.1 4 4.5l-.1.7c5.3 1 10 4.1 13.1 8.5 3.3 4.5 4.3 9.7 3.9 15.2l1.1.2c1.2.3 2.2 1.2 2.5 2.4l.2.5v3.4c-.3.3-.8.5-1.3.5zM3.5 43.7c-.8 0-1.4.6-1.5 1.3v1.8h46.1v-1.2c0-1.4-.6-2-2-2H3.7l-.2.1zm19.1-23.9c-4.9.6-9.5 3.1-12.5 7A18.9 18.9 0 0 0 5.7 39v2.7h38.6v-2.6c0-2.1-.3-4.2-1-6.2A19 19 0 0 0 25 19.7l-2.4.1zm.9-4.4a2 2 0 0 0-.6 2.3h4.2c.3-1-.1-2-1-2.5l-1.2-.3c-.5 0-1 .2-1.4.5zM9.7 19.6c-1.5-1.1-3-2.1-4.4-3.3A4 4 0 0 1 4 11.8c.6-2 2.6-3.1 4.6-2.6l1.2.6.5.4v-.1c.7-.4 1.5-.7 2.3-.9a4 4 0 0 1 4.3 3.4c.1.7 0 1.4-.3 2-.3.8-.9 1.5-1.6 2.1l-3.9 2.9c-.2.2-.4.2-.7.3l-.7-.3zm-2.9-8.4c-.7.3-1.1 1-1.1 1.7s.2 1.3.7 1.8a87.8 87.8 0 0 0 4 2.8c1.2-.9 2.5-1.8 3.6-2.8.4-.4.6-.9.7-1.5.1-.8-.3-1.6-1-1.9-.7-.4-1.5-.2-2 .3l-.6.6c-.6.7-1.2.7-1.8 0l-.6-.6c-.2-.4-.7-.6-1.1-.6l-.8.2zm29.3 3.9-6-4.5a5.5 5.5 0 0 1-2-5.6 4.9 4.9 0 0 1 5.7-3.8c.9.2 1.7.6 2.3 1.2l.6.5 1-.8a4.8 4.8 0 0 1 6.7.9c.4.6.7 1.2.9 1.9.5 1.9-.1 3.9-1.5 5.2l-4.1 3.4-2.2 1.6-.7.2c-.4 0-.6 0-.7-.2zM30 5.4c-.3 1.4.2 2.8 1.3 3.6l5.4 4.3 5.5-4.4c.8-.6 1.2-1.6 1.2-2.6.1-1.2-.6-2.4-1.7-3-1-.6-2.3-.4-3.1.4l-1.1 1.1c-.3.5-.9.7-1.4.4l-.3-.3-1.1-1.1c-.5-.4-1.2-.7-1.8-.7A3 3 0 0 0 30 5.4z"></path></svg>