<svg xmlns="http://www.w3.org/2000/svg" viewBox="0 0 50 50"><path d="M48.3 29.3 47 27.2a4.3 4.3 0 0 1 0-4.4l1.3-2.1c.6-.9.8-1.9.6-3-.2-1-.8-1.9-1.6-2.5l-.9-.5-2.3-.9c-1.5-.7-2.4-2-2.6-3.6l-.2-2.4c0-1.1-.5-2-1.2-2.8-.7-.6-1.8-1-2.8-1l-1 .2-2.4.6c-1.6.3-3.2-.2-4.2-1.3l-1.6-1.9a4 4 0 0 0-5.6-.7l-.7.7-1.5 1.9a4.5 4.5 0 0 1-4.2 1.4l-2.4-.6c-2.1-.6-4.3.5-4.9 2.6l-.2 1-.2 2.4c-.2 1.6-1.2 3-2.6 3.6l-2.3.9a3.8 3.8 0 0 0-1.9 5.9L3 22.8c.8 1.4.8 3.1 0 4.4l-1.3 2.1c-.6.9-.8 1.9-.6 3 .2 1 .8 1.9 1.6 2.5l.9.4 2.3.9c1.5.7 2.4 2 2.6 3.6l.2 2.4c0 2.2 1.8 3.8 4 3.9l1-.2 2.4-.6c1.6-.3 3.2.2 4.2 1.3l1.6 1.9c.6.8 1.6 1.4 2.6 1.5h.5a4 4 0 0 0 2.4-.8l.7-.7 1.6-1.9a4.5 4.5 0 0 1 4.2-1.4l2.4.6a4 4 0 0 0 4.9-2.6l.2-1 .2-2.4c.2-1.6 1.2-3 2.6-3.6l2.3-.9a4 4 0 0 0 2.5-5c-.4-.3-.5-.7-.7-.9zm-2 2.8c-.2.3-.5.6-.9.8l-2.4 1a7.2 7.2 0 0 0-4.1 5.7l-.2 2.5-.1.4c-.1.4-.4.7-.7.9-.3.2-.7.2-1.2.1l-2.5-.6a7 7 0 0 0-6.6 2.2l-1.6 2-.3.3a2 2 0 0 1-1.1.3 2 2 0 0 1-1-.6l-1.6-2a7.2 7.2 0 0 0-5.2-2.3l-1.4.1-2.4.5-.4.1c-.9 0-1.5-.6-1.5-1.5l-.1-2.5a6.9 6.9 0 0 0-4.1-5.6L4.5 33l-.4-.2c-.3-.2-.5-.6-.6-.9-.1-.4 0-.8.3-1.1l1.4-2.2a7.3 7.3 0 0 0 0-7l-1.4-2.2-.2-.3c-.3-.8.1-1.6.9-1.9l2.4-1c2.2-1 3.8-3.1 4.1-5.7l.2-2.6.1-.4c.2-.8 1.1-1.2 1.9-.9l2.5.6c2.3.5 4.8-.3 6.5-2.2l1.6-2 .3-.2c.6-.5 1.6-.4 2.1.3l1.6 2a7.2 7.2 0 0 0 6.7 2.1l2.5-.6.4-.1c.3 0 .8.1 1 .4.3.3.4.6.5 1.1l.2 2.6a7 7 0 0 0 4.1 5.6l2.4.9.3.2c.3.2.5.6.6.9.1.4 0 .8-.3 1.1l-1.4 2.2a7 7 0 0 0 0 6.9v.1l1.4 2.2.2.3c.1.4.1.8-.1 1.1zM34.6 18.3c.5.5.5 1.3 0 1.8L23 31.7c-.2.2-.6.4-.9.4s-.6-.1-.9-.4l-5.8-5.8c-.5-.5-.5-1.3 0-1.8s1.3-.5 1.8 0l4.9 4.9 10.8-10.8c.5-.4 1.3-.4 1.7.1z"></path></svg>