<svg xmlns="http://www.w3.org/2000/svg" viewBox="0 0 50 50"><path d="M50 1.2c-.2-.8-1-1.2-1.7-1L25 6.5 1.8.2h-.4C.6.1 0 .8 0 1.6V42c0 .6.4 1.2 1 1.4l23.6 6.4h.7L49 43.4c.6-.2 1-.7 1-1.4V1.2zM2.8 3.4l20.7 5.7v37.5L2.8 40.9V3.4zm44.4 37.5-20.7 5.7V9.1l20.7-5.7v37.5z"></path><path class="st0" d="m7 21.2 12.6 3.3h.4c.6 0 1.2-.4 1.4-1.1.2-.8-.2-1.5-1-1.7L7.7 18.5c-.8-.2-1.5.2-1.7 1s.2 1.5 1 1.7zm13.3 10L7.7 27.8c-.7-.1-1.4.3-1.6 1-.2.7.2 1.5.9 1.8l12.6 3.3h.4c.6 0 1.2-.4 1.4-1.1.1-.7-.4-1.4-1.1-1.6zm9.8-14.4h.4l12.6-3.4c.8-.2 1.2-1 1-1.7-.2-.8-1-1.2-1.7-1l-12.6 3.4c-.6.2-1.1.7-1.1 1.4s.6 1.3 1.4 1.3zM42.3 19l-12.6 3.3c-.6.2-1 .7-1.1 1.4 0 .8.6 1.4 1.4 1.4h.4L43 21.8c.8-.2 1.2-1 1-1.7s-.9-1.3-1.7-1.1zM30.1 33.4h.4L43.1 30c.8-.2 1.2-1 1-1.7s-1-1.2-1.7-1l-12.6 3.4c-.6.2-1.1.7-1.1 1.4s.6 1.3 1.4 1.3zm12.2 2.2-2.3.6c-.6.2-1.1.7-1.1 1.4 0 .8.6 1.4 1.4 1.4h.4l2.3-.6c.7-.2 1.2-1 1-1.7-.1-.9-.9-1.3-1.7-1.1zm-12.2 6.1h.4l4.7-1.2c.7-.2 1.2-1 1-1.7-.2-.8-1-1.2-1.7-1L29.8 39c-.6.2-1.1.7-1.1 1.4s.6 1.3 1.4 1.3z"></path></svg>