<svg xmlns="http://www.w3.org/2000/svg" viewBox="0 0 50 50"><path d="M16.1 50c-.4-.2-.8-.5-.7-1 0-.5.4-.8.9-1l7.3-3.4c.3-.1.5-.4.4-.7V31.8c0-.3-.1-.5-.4-.7a33 33 0 0 1-4.9-3.4A17.4 17.4 0 0 1 14 9.6l2.1-8.3c.1-.5.4-1 .8-1.3h16.2c.4.3.7.7.8 1.2l2.7 11.1c.6 3.1.3 6.4-1 9.3a17.8 17.8 0 0 1-7.7 8.6l-1.5.9c-.3.1-.4.4-.4.7v12.1c0 .3.1.6.4.7l7.3 3.5c.6.3.9.7.7 1.2-.1.3-.5.5-.7.8L16.1 50zm8.5-3.8-3.4 1.6-.3.2h8v-.1l-3.8-1.8h-.2l-.3.1zm-9.4-29.6c.3 2.7 1.3 5.3 2.9 7.5a20 20 0 0 0 6.7 5.5c.1.1.3 0 .4 0 1.2-.8 2.5-1.5 3.6-2.4a15.2 15.2 0 0 0 5.7-15.1H15.4a17 17 0 0 0-.2 4.5zm.7-6.5H34l-2.1-8.2H18l-2.1 8.2zm10.6 15.2c-.4-.4-.4-.9 0-1.3l1.5-1.5a11 11 0 0 0 2.3-4.4c.2-.6.5-.9 1-.9s1 .4 1 .9v.4a14 14 0 0 1-3.8 6.4l-.6.6c-.2.2-.4.2-.7.2l-.7-.4zm4.2-10.9c0-.5.5-1 1-1s1 .4 1 .9-.4 1-.9 1h-.1c-.5.1-1-.3-1-.9z"></path></svg>