<svg xmlns="http://www.w3.org/2000/svg" viewBox="0 0 50 50"><path d="M0 25.2A25 25 0 1 1 25.3 50H25A25 25 0 0 1 0 25.2zm1.7-.3a23.2 23.2 0 0 0 23.2 23.4 23.3 23.3 0 1 0 .2-46.6H25A23.2 23.2 0 0 0 1.7 24.9zm15.9 20.2a9.4 9.4 0 0 1-6.2-8.4c0-1.1 0-2.3.3-3.4 0-.4 0-.5-.3-.7-3-1.8-5.6-4.1-7.6-6.9-.5-.6-.5-.8 0-1.4 2.3-3.4 5.4-6.1 9.1-7.9l.4-.2.1-.1c-.8-1.3-.7-2.8-.7-4.3 0-.7.3-1 1-1 .9 0 1.9 0 2.8.2 1.7.3 3.1 1.4 3.8 2.9.1.2.3.4.6.3l1.9-.1-.4-2.3c-.3-3 .7-5.9 2.8-8 .6-.6 1-.6 1.6 0l6.5 6.9 5.6 6c.6.6.6 1-.1 1.6l-.9.7.9 1.3 1.5-1 3.3-2.4c.4-.3.8-.5 1.2-.1.4.3.4.8.2 1.2-.8 2-1.2 4-1.4 6.2a14 14 0 0 0 .6 5l.9 2.8c.2.4.1.9-.2 1.1-.3.3-.8.2-1.1-.1l-4.4-3.1-.4-.3-2.1 2.4.2.3c.7 1 1.2 2.2 1.1 3.5v1.6c0 .5-.2.9-.7.9-1.4.1-2.8.1-4.1-.5a6.2 6.2 0 0 1-2.8-2.5l-.4-.3c-2.6.5-5.2.8-7.8.8l.4.5 5.1 5.4c.6.7.6 1.1-.1 1.7a9.5 9.5 0 0 1-10.2 1.7zm-2.4-3.5c2.9 3.1 8 3.5 11.1.9l-1.1-1.2a6.6 6.6 0 0 1-9.3-1.5 6.6 6.6 0 0 1 .3-8.2L15 30.4a8.4 8.4 0 0 0 .2 11.2zm5.8-.8c1.1.1 2.2-.2 3.1-.8l-2.3-2.4-.8 3.2zm-4.4-3.3a5.5 5.5 0 0 0 2.8 3l.8-3.6-3.6.6zm15.1-5.8c-.2 3.1 1.7 5.1 4.9 4.9a4.2 4.2 0 0 0-3.4-4.9l-.7-.1-.8.1zm-15.4 4.1 3.3-.5-2.3-2.4c-.7.8-1 1.8-1 2.9zm-.5-7 4.4 4.7c.3.4.8.6 1.3.6l5.6-.3 2.9-.4v-2.5c0-.5.2-.9.7-.9 1.5-.1 3.1-.2 4.5.7.2.2.5.1.6 0l.1-.1c.6-.7 1.1-1.5 1.5-2.3.5-.9.9-1.1 1.7-.5l3 2.1.5.3a17.1 17.1 0 0 1-.1-10.5l-3.4 2.4c-.7.5-1.2.4-1.6-.5l-1-1.9a10.5 10.5 0 0 1-9-.1 9.3 9.3 0 0 1-.1 10.7l-.7-.4-.7-.5c2-3 2-6 0-9l1.2-.8-.1-.1a11 11 0 0 1-3.6-3.5l-.3-.2h-2.4v2.4c0 .5-.3.9-.7.9h-1.8c-1.4 0-2.7-.5-3.7-1.4a.6.6 0 0 0-.7-.1 22.6 22.6 0 0 0-6.5 4.6l-2.2 2.6c2 2.5 4.4 4.7 7.1 6.3l1.9-2.4c.3-.3.6-.5.8-.5l.8.6zm10.3-12.1c2.9 3 7.7 3.4 11 .8L36 16.2a6.6 6.6 0 0 1-9.3-1.5 6.8 6.8 0 0 1 .2-8.2l-1.1-1.2a8.6 8.6 0 0 0 .3 11.4zm-11.9-4.2a4.2 4.2 0 0 0 4.9 4.9c.2-3-1.6-4.9-4.5-4.9h-.4zm17.6 3.3c1.1.1 2.2-.2 3.1-.8l-2.3-2.4-.8 3.2zm-4.4-3.3a5.5 5.5 0 0 0 2.8 3l.8-3.6-3.6.6zm-.3-1.7 3.3-.6-2.3-2.4c-.6.9-1 1.9-1 3zM30.9 45v-1.6h1.6V45h-1.6zm3.3-2.5v-1.6h1.6v1.6h-1.6zM21 29.5a9.3 9.3 0 0 0 1.5-4.6 9 9 0 0 0-1.5-4.5l1.3-.9a9.2 9.2 0 0 1 0 10.9l-1.3-.9zm10.1-1.8c.8-.7 1.3-1.7 1.3-2.7-.1-1.1-.6-2-1.3-2.7l1.1-1.1c2.6 2.6 2.5 5.2 0 7.8l-1.1-1.3zm-14.1.1c1.7-2.2 1.8-3.2 0-5.5l1.1-1.1c2.5 1.8 2.5 5.7 0 7.7L17 27.8zm-7-3.7v-1.6h1.6v1.6H10zm-4.9-7.8c1.9-4.4 5.3-8 9.5-10.3l.4.7.4.7A20 20 0 0 0 6.7 17l-1.6-.7z"></path></svg>