<svg xmlns="http://www.w3.org/2000/svg" viewBox="0 0 50 50"><path d="M17.1 49.7c-4.2-.4-8.4-1.2-12.3-3-.7-.3-1.4-.7-2-1.2A6.1 6.1 0 0 1 0 41.8v-1c.5-1.2 1.5-1.8 2.6-2.3 2-.8 4.1-1.4 6.2-1.7l1.1-.2-.8-1.1A21 21 0 0 1 5 23.4c-.1-1 .4-1.9 1.3-2.4 1.2-.7 2.4-1.1 3.7-1.4a52 52 0 0 1 8.7-1.2h9.2c3.4.1 6.8.6 10.1 1.5.8.3 1.6.6 2.4 1.1l1.1 1.1.5.3a9 9 0 0 1 5 1.9c2.6 1.9 3.7 6.2 2.3 8.9a7.4 7.4 0 0 1-2.9 2.9l-3.1 1.6-.5.2.6.2 2.1 1.1c1.2.8 1.4 1.7 1 3-.4 1-1 1.9-1.8 2.5a15.2 15.2 0 0 1-5.7 3.1 46.4 46.4 0 0 1-10.5 2l-5.2.2c-2.1 0-4.2-.1-6.2-.3zM6.3 45.5a55.7 55.7 0 0 0 32.4.6l3-1.2v-.1c-6 1.5-12.2 1.9-18.4 1.9-6.2 0-12.4-.4-18.5-1.8.6.1 1 .4 1.5.6zm10.5-3.4-2.3.5-1.8.6v.3c.8.2 1.6.6 2.4.7a39.4 39.4 0 0 0 17.3-.2l1.7-.6v-.2l-.7-.3a28.2 28.2 0 0 0-4-.7 16.3 16.3 0 0 1-11.9 0l-.5-.1h-.2zM39.6 39l-6.3 1.2-1.1.5 2.6 1.1c1.1.6 1.2 1.3.7 2.5a40.5 40.5 0 0 0 8.5-2.2l1-.8-.9-.9c-1.3-.7-2.7-1.2-4.2-1.4h-.3zm-29.4-.6c-2.2.4-4.5.7-6.6 1.6l-1.7.9c-.3.2-.3.5 0 .8l.9.6c2.6 1.2 5.4 1.6 8.3 2-.5-1.1-.3-1.8.6-2.3.4-.3.9-.5 1.3-.6l1.4-.5c-.8-.6-1.7-1.2-2.4-1.9a2 2 0 0 0-1.4-.6.3.3 0 0 0-.4 0zm-3.4-13v.3A19 19 0 0 0 12 36.6a15.2 15.2 0 0 0 19.8 2.3 18 18 0 0 0 7.6-11.4l.5-2.5-1.2.5-1.2.4a52 52 0 0 1-12.4 1.5c-4.3.1-8.6-.2-12.9-.8a24 24 0 0 1-5.4-1.5v.3zm34.7.4h.3c1.2.1 2.4.6 3.3 1.3a3.6 3.6 0 0 1 .9 5.1l-.1.1c-.6.8-1.4 1.4-2.4 1.8a30 30 0 0 1-5.8 1.8l-.4.2-1.6 1.9v.1l4.7-1.1c2.1-.5 4.1-1.4 5.9-2.7 2-1.5 2.6-3.3 1.9-5.7-.8-2.6-2.7-3.9-5.3-4.4l-1.1-.1a6 6 0 0 0-.3 1.7zm-.4 2.1-1.6 4.6-.8 1.7c1.9-.6 3.8-1 5.3-2.2.3-.2.5-.4.6-.7a2 2 0 0 0-.3-2.5 4.7 4.7 0 0 0-2.8-1.2h-.1c-.1-.1-.2 0-.3.3zM11 24.7a67.8 67.8 0 0 0 24.6 0c-2.4-.9-7.3-1.4-12.3-1.4-4.8 0-9.6.5-12.3 1.4zm1.7-3.9c-1.7.2-3.3.6-4.8 1.3l-1.3.8c.6.6 1.3 1 2.1 1.2l.2-.1c1.1-.9 2.4-1.2 3.7-1.5a68.6 68.6 0 0 1 21.2-.1c1.5.3 2.9.6 4.1 1.5h.3l1.5-.7c.5-.3.5-.5 0-.7l-2.2-1c-3.1-.8-6.2-1.3-9.4-1.5l-5-.2c-3.5.2-6.9.4-10.4 1zm2.6 16.5a17 17 0 0 1-4.7-4.7c-.3-.3-.3-.8 0-1.2l.1-.1c.4-.3.9-.2 1.2.4 1.1 1.6 2.5 3.1 4.1 4.2.2.2.5.5.6.8l-.6.7-.4.1c.1-.1-.1-.1-.3-.2zM10 30a.9.9 0 0 1-.8-.8c0-.5.3-.8.8-.9.5 0 .8.4.8.8 0 .5-.4.9-.8.9zm8.5-13.8a1 1 0 0 1 .1-.9c.6-.8.8-1.9.5-2.9l-.6-1.2a4.8 4.8 0 0 1-.1-5.5l.5-.5c.3-.2.7-.1 1 .2.3.3.3.8 0 1.1-.6.8-.8 1.8-.6 2.7.1.5.4 1 .7 1.4a5.1 5.1 0 0 1 0 5.8l-.7.6c-.4-.4-.8-.6-.8-.8zm10.2.3c-.4-.3-.4-.8-.2-1.2l.1-.1c.9-1.2.8-2.8-.1-4-1.3-1.7-1.3-4.4 0-5.9.2-.3.7-.5 1-.3.4.3.6.7.5 1l-.2.4c-.8 1.2-.8 2.7.1 3.9.6.7 1 1.7 1 2.6.1 1.2-.2 2.3-.9 3.3-.2.3-.4.4-.8.4-.2.1-.4 0-.5-.1zm-5.2-6.2c.5-.6.7-1.4.6-2.2 0-.7-.3-1.3-.7-1.9a4.8 4.8 0 0 1-.2-5.5l.7-.8h.5c.7.5.7.8.3 1.5-.8 1.2-.7 2.7.2 3.9a4.8 4.8 0 0 1 0 5.8c-.2.2-.5.4-.8.4a.9.9 0 0 1-.8-.8l.2-.4z"></path></svg>