<svg xmlns="http://www.w3.org/2000/svg" viewBox="0 0 50 50"><path d="m30.3 50-1.6-.5A51.4 51.4 0 0 1 0 19.7v-1.4l.5-1.5a5.2 5.2 0 0 1 7-2.6l.2.1c.3.2.7.2 1 .1L48.5.1c.6-.2 1.1-.1 1.4.3.2.3.2.8.1 1.2l-4 11.7-9.9 28.9v.7c1 2.8-.4 5.8-3.2 6.8l-.9.2-.2.1h-1.5zM4 15.9a3.5 3.5 0 0 0-1.8 4.5v.1a50.3 50.3 0 0 0 27.3 27.3c1.7.7 3.7-.1 4.5-1.8l.3-1.5c0-1.2-.8-2.3-1.9-2.8l-.8-.4A43.4 43.4 0 0 1 8.5 17.8a3.3 3.3 0 0 0-3.1-2.1l-1.4.2zm5.8.1.7 1.4A41.8 41.8 0 0 0 29 37.8c1.8 1 3.7 1.8 5.5 2.7l.1-.2 4.8-14.2c.1-.2 0-.5-.2-.6l-2.4-1.9a1 1 0 0 1-.2-1.3l.1-.1c.3-.4.9-.5 1.4-.2l.8.6 1.4 1.1 1.9-5.6a4.4 4.4 0 0 1-3.6-5.2l.1-.5a4.2 4.2 0 0 1 2.1-2.6c1.3-.7 2.9-.8 4.3 0l2.5-7.4-13 4.6.3.7c.3.8.2 1.4-.4 1.6-.6.3-1.1 0-1.4-.9l-.3-.7L20.7 12c1.3 2.1.7 4.9-1.4 6.2l-.5.3c-1.1.5-2.3.5-3.4.1-1.5-.6-2.6-2-2.8-3.6l-2.8 1zm8.5-3-3.7 1.3c-.2 0-.4.3-.3.5a2.5 2.5 0 0 0 2.5 2.3c1.4-.1 2.5-1.2 2.5-2.5l-.6-1.4c0-.2-.2-.2-.4-.2.1 0 0 0 0 0zm24-1.6a2.5 2.5 0 0 0-1.9 3c.2 1 1 1.7 2 1.9.2 0 .4.1.5-.3l1.4-4.2c-.4-.3-.9-.5-1.5-.5l-.5.1zM25.3 29c0-2.5 2-4.4 4.4-4.4 2.5 0 4.4 2 4.4 4.4s-2 4.4-4.4 4.4a4.3 4.3 0 0 1-4.4-4.4zm4.4-2.4c-1.4 0-2.5 1.1-2.5 2.5s1.1 2.5 2.5 2.5 2.5-1.1 2.5-2.5-1.1-2.6-2.5-2.5zm-9.3 1.5-.3-2.1c0-.5.4-1 .9-1s.9.3 1 .8l.3 2.1c0 .5-.3 1-.9 1.1h-.1c-.4-.1-.8-.4-.9-.9zM8.8 26.7c0-.5.4-1 .9-1s1 .4 1 .9-.4 1-1 1c-.5.1-.9-.4-.9-.9zm-1.4-2-2.7-5.4c-.2-.5 0-1 .4-1.2h.1c.5-.2 1 0 1.3.5L9 23.8a1 1 0 0 1-.5 1.4l-.5.1c-.1-.2-.5-.3-.6-.6zm16.3-2.2-3.1-.4c-.5-.1-.9-.6-.8-1.1.1-.6.6-.9 1.2-.9l3 .4c.5.1.9.6.8 1.1a1 1 0 0 1-1.1.9c.1 0 0 0 0 0zm1.8-5.6a4.5 4.5 0 1 1 4.5 4.5 4.6 4.6 0 0 1-4.5-4.5zm2-.1a2.5 2.5 0 0 0 4.9.1 2.5 2.5 0 0 0-4.9-.1z"></path></svg>