<svg xmlns="http://www.w3.org/2000/svg" viewBox="0 0 50 50"><path d="M17.9 50c-.4 0-.6-.3-.7-.6l-2-4.9-.2-.6-2 .9-3.2 1.5c-.4.2-.8.4-1.1 0-.4-.4-.2-.8 0-1.1l5.2-11.9.2-.5-.4-.1c-2-.4-2.8-1.3-3-3.2l-.1-1c-.1-1-.6-2-1.5-2.6l-1.5-1.2c-.9-.8-1.2-2-.8-3.1l.6-1.6c.5-1 .5-2.2 0-3.3l-.7-1.9c-.2-.9 0-1.8.6-2.4l1.1-1a4.3 4.3 0 0 0 2.2-3.9l.1-.5a3.2 3.2 0 0 1 3.1-2.9l1-.1c1.2-.2 2.2-.8 2.8-1.7L18.7 1a3 3 0 0 1 3.2-.8l1.6.6c1 .5 2.1.5 3.1 0l2-.7c.9-.3 1.8 0 2.5.6l1.4 1.6a4 4 0 0 0 3 1.7l1 .1c1.9.3 2.7 1.2 3 3.2l.1 1c.1 1 .6 2 1.5 2.6l1.4 1.1c.9.8 1.3 2.1.9 3.2l-.6 1.5c-.5 1-.5 2.2 0 3.2l.7 1.9c.3 1 0 2-.7 2.7l-1.6 1.3c-.9.6-1.5 1.6-1.5 2.7l-.2 1.3a3.2 3.2 0 0 1-2.7 2.7l-.6.1 1.9 4.2 3.6 8.2c.2.4.3.7 0 1.1s-.7.2-1.1 0l-5.2-2.4-.2.5-1.9 4.8c-.2.4-.3.8-.8.8s-.7-.4-.8-.8l-5.8-13.1-.4-.5c-.2.2-.4.3-.4.5l-5.8 13-.1.3c-.7.5-.9.8-1.3.8zM32 47.5l1.8-4.3c.4-1 .6-1.1 1.6-.6l3.9 1.8v-.2l-4.8-10.8c-.1-.3-.3-.3-.5-.2a4 4 0 0 0-1.6 1.3L31.2 36a3 3 0 0 1-3 .8l-1.2-.4 5 11.1zm-15.7-4 1.6 3.9 4.9-11.1-2.2.4c-1.1 0-1.8-.7-2.5-1.5l-1.4-1.6-1.1-.7-5 11.3.1.1 3.5-1.6c.4-.2.8-.4 1.2-.4.4 0 .6.3.9 1.2zm2.8-40.9-.2.4a5.2 5.2 0 0 1-4.4 2.4c-1.8.2-2.1.7-2.4 2.2V8a5 5 0 0 1-2.2 4.1l-1.2 1c-.5.3-.7.9-.6 1.4l.5 1.5a5 5 0 0 1 .3 4.1l-.4 1c-.7 1.8-.4 2.2.7 3.1l.5.4c1.5 1 2.3 2.6 2.4 4.3.1 1.7.6 2.1 2.1 2.4l.6.1c1.6 0 3 .8 3.9 2.1l1.1 1.3 1 .5 1.8-.6c1.5-.8 3.3-.8 4.8 0l.6.3c1.6.5 2 .3 2.8-.7l.5-.6c1-1.4 2.5-2.3 4.3-2.3 1.9-.2 2.2-.6 2.5-2.2v-.5a5 5 0 0 1 2.2-4.1l1.2-1c.4-.4.6-.9.5-1.5l-.5-1.5a5 5 0 0 1-.3-4.1l.5-1c.6-1.7.4-2.1-.7-3.1l-.4-.3a5.3 5.3 0 0 1-2.5-4.5c.1-1.2-.8-2.3-2-2.4h-.5a5 5 0 0 1-3.9-1.9l-.7-.9c-.9-1.1-1.3-1.5-3.1-.8l-.9.5c-1.3.6-2.7.6-4 0l-.7-.3c-.5-.2-1-.4-1.5-.4-.6 0-1 .4-1.7 1.2zm5.8 28a12.2 12.2 0 1 1 .2-24.4 12.2 12.2 0 0 1-.2 24.4zM14.2 18.3a10.6 10.6 0 0 0 10.6 10.8h.2c5.9-.1 10.7-4.9 10.7-10.8S30.9 7.6 25 7.6c-5.9 0-10.7 4.8-10.8 10.7zm14.2 6.3-2.9-1.5a1 1 0 0 0-1 0l-2.9 1.5h-.9c-.4-.1-.3-.5-.3-.9l.6-3.4c.1-.2 0-.5-.2-.7l-2.4-2.4c-.3-.3-.5-.6-.3-.9.2-.3.5-.5.8-.5l3.2-.5c.3 0 .6-.2.8-.5l1.4-2.9c.2-.3.4-.6.8-.6s.6.2.8.6l1.4 2.9c.1.3.5.6.8.6l3.2.4c.3 0 .5.1.7.3.3.4.2.7-.2 1l-2.5 2.5-.2.6.6 3.5c.1.4-.1.8-.5.9h-.8zm-4.5-8.8c-.2.6-.7 1-1.4 1l-2.2.3 1.7 1.8c.4.3.5.8.4 1.3l-.4 2.5 2.3-1.2a1 1 0 0 1 1.3 0l2.3 1.2-.3-1.9 2.1-3.7-2.6-.4a1 1 0 0 1-.9-.7L25 13.6l-1.1 2.2z"></path></svg>