<svg xmlns="http://www.w3.org/2000/svg" viewBox="0 0 50 50"><path d="m9.9 50-1.6-.5a4.6 4.6 0 0 1-2.7-4.7v-.3c-2.8.1-4.7-1.1-5.4-3.9a4.9 4.9 0 0 1 8.2-4.4l5.4-5.4.1-.5a4.9 4.9 0 0 1 1.2-5c1.6-1.8 2.6-4 3-6.3l1-6.3c.6-3.3 2.2-6.3 4.7-8.5C27 1.1 31.4-.4 35.8.1c3.9.3 7.5 2.1 10.1 5 2.4 2.5 3.8 5.8 4.1 9.2l.1.3v2.1l-.6 3a15.4 15.4 0 0 1-8.4 10.1 20 20 0 0 1-6.4 1.6c-2.2.2-4.3.7-6.4 1.4-1.3.5-2.5 1.2-3.5 2.1a4.9 4.9 0 0 1-5.1 1.3l-.5.1-5.3 5.3 1.1 2.2c.8 2.5-.6 5.2-3.2 6l-.7.2-.2.1-1-.1zm-1.6-8.3c.4.4.4.9-.1 1.5l-.2.2a2.9 2.9 0 0 0 3 4.5c1.1-.2 2-1.1 2.2-2.2.3-1.1-.1-2.3-1.1-3-.8-.5-1-1.2-.1-2.1l5.4-5.4.3-.3-1-1.6-.3-.2-1.6-1-.3.4-5.6 5.6c-.3.5-1 .6-1.4.2l-.3-.4-.2-.2a2.9 2.9 0 0 0-4.1-.5 2.9 2.9 0 0 0-.5 4.1 3 3 0 0 0 3.6.8l.6-.4c.2-.2.5-.3.9-.4l.8.4zM25.9 4.9a13 13 0 0 0-4.9 8l-.9 5.6c-.5 3.1-1.5 6-3.8 8.3-.3.3-.5.7-.6 1.1-.5 1.5.3 3.1 1.8 3.6.4.2.8.3.9.8a3 3 0 0 0 3.7 2c.5-.2 1-.4 1.3-.8.7-.7 1.4-1.2 2.2-1.7 2-1 4.1-1.7 6.3-2l5.4-.8c7.3-1.6 12-8.9 10.4-16.3l-.5-1.8a13.6 13.6 0 0 0-9.1-8.4 13.2 13.2 0 0 0-12.2 2.4zM35 26.5a1 1 0 0 1 .7-1.1h.1c2-.3 3.9-1.2 5.3-2.6a9.5 9.5 0 0 0 2.9-5.7l.1-.4c.1-.5.6-.9 1.1-.8.5.1.9.5.8 1.2a11.8 11.8 0 0 1-9.9 10.2h-.2c-.4-.1-.8-.4-.9-.8zm-5.7-10.7c-.5 0-.9-.5-1-1 0-.5.5-.9 1-.9s.9.5.9 1c.1.5-.4.9-.9.9zm15.6-2a1 1 0 0 1 0-2c.5 0 1 .4 1 1s-.4 1-1 1zM26.4 9c0-.5.4-1 .9-1s1 .4 1 .9-.4 1-.9 1c-.6 0-1-.4-1-.9zm5.8-2a1 1 0 0 1 2 0c0 .5-.4 1-1 1-.5 0-.9-.5-1-1z"></path></svg>