<svg xmlns="http://www.w3.org/2000/svg" viewBox="0 0 50 50"><path d="M15.3 50V39.5a1 1 0 0 0-.3-.7L4.7 27.6l-.6-.3-1.8-.4a2.6 2.6 0 0 1-2.2-2.8 2.5 2.5 0 0 1 2.7-2.3c.6 0 1.3-.2 1.7-.7a2.9 2.9 0 0 1 4.1-.2c.4.4.7.8.8 1.3.1.5.4.9.8 1.2L20.5 33l.3.3.7-1.3a6.9 6.9 0 0 1-2.9-3.8l-1.4-.1c-1.7-.3-2.8-2-2.5-3.7l.4-1c.2-.2.2-.6.1-.8-.5-1.4-.6-3-.5-4.5a8.6 8.6 0 0 1 7.1-7.4c2.4-.4 4.8-.4 7.1.1a8.7 8.7 0 0 1 6.4 10.4v.1l-.1.5a3 3 0 0 0 .1 2.1c.7 1.6-.1 3.4-1.6 4.1l-1.2.3c-.5-.1-1 .3-1.1.8a7.2 7.2 0 0 1-2.6 3.1l.6 1.3.3-.2 10.4-9.7.6-.9c.8-2.4 3.3-3 5.1-1.2.5.4 1.1.7 1.8.6 1 0 2 .6 2.3 1.6.5.9.3 2-.5 2.7-.4.4-.9.7-1.5.8a6 6 0 0 0-3.9 2.2 391 391 0 0 1-8.8 9.4c-.3.3-.5.8-.5 1.2v10H15.3zM6 26.7l.3.3 10.3 11c.2.2.4.5.4.9v9.5h16v-9.6c0-.3.1-.5.3-.7l8.9-9.5 1.7-1.9-2.8-2.2-.2.2L30 34.9l-.2.6v6.1l-1.2-1.2a5 5 0 0 0-7-.2l-.2.2-1.2 1.2v-5.9a1 1 0 0 0-.4-.8L9.2 25l-.4-.3-2.8 2zm15.8 11.2 1.2-.5-1.2-1v1.5zm5.2-.5 1.2.5v-1.5l-1.2 1zM22.7 33l-.8 1.5a250.6 250.6 0 0 0 3.2 2.2l2.8-2.2-.7-1.5-.4-.2c-1.2.4-2.5.4-3.8 0l-.3.2zM21 18.8c-1.4.5-1.8 1.1-1.7 2.6l.4 5.2a5.4 5.4 0 0 0 4.9 4.9c2.6.2 5-1.6 5.5-4.2l.4-4.7h-.3c-1.3.3-2.6-.2-3.5-1.3l-.9-1.1c-.8-1-2-1.6-3.3-1.6l-1.5.2zm-4.7 5.5c-.3.5-.2 1.2.2 1.7s1 .7 1.7.6l-.2-3.2c-.8-.1-1.4.3-1.7.9zm15.8-.9-.2 3.2c.7.2 1.4-.2 1.8-.8.3-.5.3-1.2-.1-1.7-.3-.4-.7-.7-1.2-.7h-.3zm-29.5 0c-.5 0-.9.4-1 .9 0 .5.3 1 .8 1l1.9.4.5-.1 2.8-2.3.2-.4c-.1-.7-.8-1.2-1.5-1.1a1 1 0 0 0-.7.3l-.6.6c-.3.5-.9.8-1.6.7h-.8zm39.6-.7c-.1.2-.1.5.1.6l1.4 1.1c.5.4 1 1 1.6 1.2l2.1-.3c.5 0 .9-.5.9-1s-.5-.9-1-.9h-.1c-1.1.2-2.2-.2-2.8-1.2-.2-.3-.6-.4-1-.6-.5.2-1 .6-1.2 1.1zM23.1 12.1a7.2 7.2 0 0 0-7 7.3c0 .9.2 1.7.5 2.6l1.1-.2v-1.1c0-1.1.5-2.1 1.4-2.7a6 6 0 0 1 7.9 1.1l1.1 1.3c.7.8 1.9.8 2.7.1.3-.2.4-.6.5-.9l.1-1H33c.1.9-.1 1.8-.6 2.5l-.2.6 1.2.2.3-1a7 7 0 0 0-6-8.8l-2.2-.1-2.4.1zm1.6 17.7a3.2 3.2 0 0 1-2.9-3V25h6.5l-.2 2.4a3.2 3.2 0 0 1-3.1 2.5l-.3-.1zm.3-1.6c.9 0 1.6-.7 1.6-1.6h-3.2c0 .9.7 1.6 1.6 1.6zM39.7 14c-.4-.4-.7-1-.9-1.6-.4-1.3.1-2.7 1.2-3.5a3.7 3.7 0 0 1 3.9-.5h.9c1.6-.8 3.6-.2 4.6 1.3 1 1.5.7 3.5-.7 4.6L44.3 18a87.8 87.8 0 0 1-4.6-4zm1.1-3.7c-.7.7-.7 1.9 0 2.6l3.5 2.9 3.2-2.7c.9-.6 1.1-1.8.4-2.7l-.1-.1c-.8-.8-2.1-.9-2.9-.2l-.1.1-.5.7-.8-.8c-.4-.3-.8-.5-1.3-.4-.4 0-1 .2-1.4.6zm-39.5 4a3.5 3.5 0 0 1-.7-4.6c1-1.5 3-2 4.6-1.3.3.2.6.2.9 0 1.6-.8 3.6-.2 4.6 1.3 1 1.5.7 3.5-.6 4.6L5.7 18l-4.4-3.7zm.8-3.9a2 2 0 0 0 .2 2.7l.1.1L5.7 16l3.4-3 .5-.7c.3-.8 0-1.7-.7-2.2-.8-.6-1.9-.5-2.6.1l-.7.7-.6-.7c-.4-.3-.9-.5-1.4-.5-.6 0-1.1.2-1.5.7zm26.6-4.1a3.4 3.4 0 0 1-.7-4.6C29 .2 31-.4 32.6.4c.3.2.6.2.9 0 1.6-.8 3.6-.2 4.6 1.3 1 1.5.7 3.5-.7 4.6l-4.2 3.5-.2.1-4.3-3.6zm.8-4a2 2 0 0 0 .2 2.7l.1.1 1.2 1 2.1 1.8 3.2-2.7c.9-.6 1-1.8.4-2.7l-.1-.2c-.8-.8-2.1-.9-2.9-.1l-.5.6-.7-.7a3 3 0 0 0-1.5-.5c-.6 0-1.1.3-1.5.7zM13.3 6.9l-.7-.6c-1.4-1.1-1.7-3.2-.7-4.7s3-2.1 4.6-1.3c.3.2.6.2.9 0C19-.4 21 .1 22 1.6c1 1.5.7 3.5-.7 4.6l-4.2 3.5-.2.1-3.6-2.9zm.1-4.6a2 2 0 0 0 .1 2.7l.1.1 2.8 2.3.5.4 3.2-2.7c.9-.6 1-1.9.4-2.7l-.1-.1c-.8-.8-2.1-.9-2.9-.2l-.7.7-.6-.8c-.4-.3-.9-.5-1.4-.5-.5.1-1 .4-1.4.8z"></path></svg>