<svg xmlns="http://www.w3.org/2000/svg" viewBox="0 0 50 50"><path d="M43.1 50h-.6A48.1 48.1 0 0 1 .1 7.5 6.9 6.9 0 0 1 6.3 0h7.5c3.4 0 6.3 2.5 6.8 5.9.3 2 .8 4 1.5 5.9a7 7 0 0 1-1.5 7.2L19 20.6c2.7 4.2 6.2 7.7 10.4 10.4l1.6-1.6a6.6 6.6 0 0 1 7.2-1.5 30 30 0 0 0 5.9 1.5c3.4.5 6 3.5 5.9 6.9v6.8a7 7 0 0 1-6.9 6.9zm-.2-4.6h.2c1.2 0 2.3-1 2.3-2.3v-6.9c0-1.1-.8-2.1-1.9-2.3-2.4-.3-4.7-.9-6.9-1.7-.8-.3-1.8-.1-2.4.5l-2.9 2.9c-.7.7-1.9.9-2.8.4A38.1 38.1 0 0 1 14 21.5c-.5-.9-.4-2 .4-2.8l2.9-2.9c.6-.6.8-1.6.5-2.4-.8-2.2-1.4-4.5-1.7-6.9a2.2 2.2 0 0 0-2.2-1.9h-7c-1.2 0-2.3 1-2.3 2.3v.2a42.9 42.9 0 0 0 38.3 38.3z"></path></svg>