<svg xmlns="http://www.w3.org/2000/svg" viewBox="0 0 50 50"><path d="M9.1 49.7a6.7 6.7 0 0 1-7-6.6v-3.3l-.2-.6a4 4 0 0 1-.5-3.8c0-.1.1-.3 0-.4A6.2 6.2 0 0 1 0 32.2v-1.5l.1-.2a5 5 0 0 1 3-3.8l.2-.4v-1.9c0-.2-.1-.5-.3-.6A3.8 3.8 0 0 1 1.5 19v-.6c-.3-.6-.4-1.3-.3-1.9.4-1.8 1-3.6 2-5.2 2.3-3.7 5.7-6.7 9.7-8.4a29.4 29.4 0 0 1 27.4 1.7c3.8 2.4 6.6 5.6 8 9.9.4 1.1.8 2.3.4 3.5l.1.4c1.1 1.8.6 4.2-1.2 5.3l-.5.3-.3.4v1.7c0 .3.1.6.4.7l1.7 1.2c.7.7 1.1 1.7 1.2 2.6v1.3c-.1.9-.5 1.8-1 2.5-.2.2-.2.5-.1.7.7 1.3.6 3-.5 4.1-.4.4-.6 1-.6 1.6.1 1.2 0 2.3-.2 3.5a6.7 6.7 0 0 1-6.8 5.4H9.1zm21.2-2h10.5c2 .1 3.8-1 4.6-2.8.7-1.3.4-2.8.4-4.1l-2.5-.5-1.3-.1c-.9.1-1.7.5-2.3 1a5.2 5.2 0 0 1-3.8.9 6 6 0 0 1-2.9-1.3c-.8-.6-1.8-.8-2.8-.6a5 5 0 0 0-1.8.9 5.5 5.5 0 0 1-3.9.9 6 6 0 0 1-2.9-1.3c-.8-.6-1.9-.8-2.8-.5a4 4 0 0 0-1.8 1 5.3 5.3 0 0 1-3.9.9 6 6 0 0 1-2.9-1.3c-1-.6-2.2-.8-3.2-.4-.9.4-2 .4-2.9.2l.2 3.3c.5 2.4 2.6 4 5 3.9h10l11-.1zm-7.4-8.3c.3.3.7.5 1.1.6 1 .4 2.2.3 3.1-.4 2.6-1.9 5.1-1.9 7.6 0l.8.4c1.1.4 2.2.2 3.2-.4.7-.5 1.4-.9 2.2-1.2 1.2-.3 2.4-.3 3.6.2.8.3 1.8.1 2.3-.6.5-.5.6-1.3.3-2l-2.8.3H28.4c-.4 0-.7.1-.9.4L26.2 38c-.3.5-1 .6-1.4.2l-.2-.2-1.4-1.4a1 1 0 0 0-.7-.3H9.9a50 50 0 0 1-6.7-.2l-.1.4c-.1 1.1.8 2.1 2 2.2l.8-.1 1.4-.4c1.5-.3 3 .1 4.2 1l1.2.7c1.2.4 2.5.2 3.4-.6 2-1.5 4.8-1.5 6.8.1zm2.6-3.4 7.6-7.7H17.8l7.7 7.7zM5.1 28.2a3 3 0 0 0-2.7 1.5 3.1 3.1 0 0 0 1 4.3c.5.3 1.2.5 1.8.5h15.6L17.2 31l-2.4 2.4c-.7.7-1.2.7-1.9 0l-4.8-4.7a1 1 0 0 0-.7-.3H6.3c-.4-.2-.8-.2-1.2-.2zm39.7 6.2a3 3 0 0 0 3-1.8c.7-1.5.1-3.3-1.4-4.1a4 4 0 0 0-1.5-.3h-8.3c-.2 0-.5.1-.6.3L30.4 34l-.4.4h14.8zm-34-6.2 3.1 3.1 2.1-2.1-.8-.7c-.2-.1-.3-.4-.5-.4h-2.1l-1.8.1zm-3.5-4.3-2 .5v1.8h39.4v-1.7l-.1-.2-2.3-.5c-1-.1-1.7.5-2.5 1a6 6 0 0 1-4.1.9c-1-.2-1.9-.6-2.7-1.3-.7-.5-1.6-.7-2.4-.7-.8.1-1.6.5-2.3 1a6 6 0 0 1-4.1.9c-1-.2-1.9-.6-2.7-1.2-.7-.5-1.6-.7-2.4-.7-.8.1-1.6.4-2.2 1a5.7 5.7 0 0 1-6.8-.3c-.6-.5-1.3-.7-2.1-.7l-.7.2zm24.2-2c1.2.1 2.2.6 3.1 1.3.9.7 2.2.9 3.3.4l1.3-.8a5 5 0 0 1 3.9-.9l1.7.4c.8.1 1.6-.2 2-.8.4-.5.5-1.1.3-1.7l-2.3.2H6.7L3 19.9a2 2 0 0 0 .5 1.7 2 2 0 0 0 2.2.5l2.3-.4c1.2 0 2.5.5 3.4 1.3 1.3.9 3 .9 4.3 0 .8-.7 1.9-1.1 2.9-1.3 1.5-.2 3 .3 4.2 1.2.8.6 1.7.8 2.7.7.7-.1 1.4-.5 2-.9.9-.7 2.1-1.1 3.3-1l.7.2zM18.4 3C14 4 10 6.2 6.9 9.5c-1.9 2-3.1 4.4-3.7 7.1-.2.6.1 1.3.8 1.5l.4.1h41.1c1 0 1.6-.6 1.4-1.5-.4-2-1.3-3.9-2.5-5.6-2.1-2.8-4.9-5-8.1-6.4A27 27 0 0 0 18.4 3zm23.9 12.5a14.9 14.9 0 0 0-8.1-7.3c-1.6-.7-3.3-1.2-5.1-1.5l-.5-.1a1 1 0 0 1-.7-1.1c.1-.5.5-.8 1-.9l3.7.9c3.5 1 6.6 2.9 9 5.6 1 1.1 1.8 2.3 2.3 3.6.3.5.1 1.1-.4 1.4l-.5.1-.7-.7zm-15.9-1.3c0-.5.4-1 .9-1s1 .4 1 .9-.4 1-.9 1c-.6 0-1-.4-1-.9zm-5.9.2a1 1 0 0 1 0-2c.5 0 1 .4 1 1-.1.6-.5 1-1 1zm-9.8 0c-.5 0-.9-.4-.9-.9s.4-1 1-.9 1 .4.9 1c0 .4-.5.8-1 .8zM22 9.9a1 1 0 0 1 2 0c0 .5-.4 1-.9 1-.6-.1-1.1-.5-1.1-1zm-7.6 0c0-.5.4-1 .9-1s1 .4 1 .9-.4 1-.9 1-.9-.4-1-.9zm10.1-4c-.5 0-1-.5-1-1a1 1 0 0 1 2 0c0 .6-.5 1-1 1z"></path></svg>