<svg xmlns="http://www.w3.org/2000/svg" viewBox="0 0 50 50"><path d="m32.6 32.5 5.4-7.6c5-7.1 3.4-16.9-3.7-22a15.8 15.8 0 0 0-22 22l5.4 7.6c-6.7 1.2-12 4-12 8.5 0 6 9.7 9.1 19.3 9.1S44.3 47 44.3 41c0-4.5-5.2-7.3-11.7-8.5zm-16.9-10a11.6 11.6 0 0 1 2.8-16.2 11.5 11.5 0 0 1 16.1 16.1l-9.5 13.3-9.4-13.2zM25 45.8c-9.8 0-15.1-3.3-15.1-4.9 0-1.4 3.7-3.8 10.5-4.6l3 4.3c.7.9 2 1.2 2.9.5l.5-.5 3-4.2c6.6.8 10.2 3.2 10.2 4.6.1 1.6-5.2 4.8-15 4.8zm6.9-30.2a6.8 6.8 0 1 0-6.8 6.8 6.9 6.9 0 0 0 6.8-6.8zm-9.5 0a2.8 2.8 0 1 1 5.6 0 2.8 2.8 0 1 1-5.6 0z"></path></svg>