<svg xmlns="http://www.w3.org/2000/svg" viewBox="0 0 50 50"><path d="m22.9 47.7-3.4-.5A21.6 21.6 0 0 1 3.4 34.6C1.4 30.4.3 26 0 21.4c-.2-1.5.6-2.9 1.9-3.6 1.9-1.2 4-2 6.3-2.4 5.5-1.1 11-1.7 16.6-1.6.8 0 1.4.5 1.4 1.1 0 .7-.5 1.1-1.3 1.1l-8.2.4c-4 .2-7.9 1-11.6 2.3l-2.2 1.1c-.7.5-.7 1 0 1.5 1 .6 2 1.1 3.1 1.5 4.1 1.2 8.3 2 12.6 2.1 4.9.3 9.9.3 14.8-.1a42.6 42.6 0 0 0 13.3-3.1c1.4-.8 1.4-1.4 0-2.1-1.2-.6-2.4-1-3.6-1.3l-5.3-1.1-.5-.1c-.6-.1-.9-.7-.8-1.3.1-.6.6-1 1.2-.9 3.2.5 6.4 1 9.4 2.3l1.5.8c1 .6 1.6 1.8 1.5 3a33.2 33.2 0 0 1-5.4 17c-3.7 5.5-9 8.5-15.5 9.4l-2 .3h-4.3zM4.7 32c2 5 5.2 9 10.2 11.4 4 1.9 8.2 2.3 12.5 2 8.2-.7 13.9-4.7 17.3-12.1l1.5-3.8a89.8 89.8 0 0 1-42.5 0c.4.7.7 1.6 1 2.5zm-2-7.6c.3 2.1.3 2.1 2.4 2.8 4.6 1.5 9.4 1.9 14.2 2.2 5.2.3 10.4.2 15.5-.3a50 50 0 0 0 10.1-1.9c2-.7 2-.7 2.4-2.8l.1-.6c-.8.3-1.5.7-2.3.9a57.2 57.2 0 0 1-14.8 2.4c-5.3.3-10.6.2-15.9-.4a41.6 41.6 0 0 1-11.9-2.9l.2.6zM16.8 42a12 12 0 0 1-7.6-7.6c-.2-.6.2-1.2.7-1.4.1 0 .3-.1.4 0 .5 0 .9.3 1 .8.9 2.8 2.9 4.5 5.5 5.8l.8.4c.5.3.7.9.4 1.4a1 1 0 0 1-.9.7l-.3-.1zm1.4-21.5c0-1.9 1.5-3.4 3.4-3.4s3.4 1.5 3.4 3.4-1.5 3.4-3.3 3.4h-.1a3.4 3.4 0 0 1-3.4-3.4zm3.4-1.2c-.6 0-1.1.5-1.1 1.1 0 .6.5 1.1 1.1 1.1s1.1-.5 1.1-1.1c0-.6-.5-1.1-1.1-1.1zm5.7-.1v-6.5c-.1-.6.3-1.2 1-1.3h4.6c.5 0 1 .3 1.2.8l2.2 5.5c.3.5.1 1.2-.5 1.5l-.5.1-6.6 1.1h-.3c-.7.1-1.1-.4-1.1-1.2zm2.3-5.5V18l4.1-.7-1.4-3.4-.4-.3h-1.2l-1.1.1zM17 10.2l-1.1-5.5c-.1-.6.3-1.1.9-1.3l4.5-1.1c.5-.2 1.1.1 1.3.5l2.1 3.3c.4.5.4 1.2-.1 1.6l-.3.2-5.4 3.2c-.3.2-.5.3-.9.3s-.8-.4-1-1.2zm1.4-4.8.6 3 3.2-2-1.1-1.7-2.7.7z"></path></svg>