<svg xmlns="http://www.w3.org/2000/svg" viewBox="0 0 50 50"><path d="M42.2 25.6c.3-.5.5-1 .5-1.5 0-1-.6-2-1.8-2.8 1.5-1 1.9-2 1.9-2.8 0-3.4-7.1-5.4-14.3-5.9a3.9 3.9 0 0 0-3.7-3.1 3.7 3.7 0 0 0-3.7 3.1c-7.2.5-14.2 2.5-14.2 5.9 0 .8.4 1.8 1.9 2.8-1.2.8-1.9 1.8-1.9 2.8 0 .6.2 1.2.6 1.7C2.6 27.3 0 29.5 0 31.9c0 5.5 12.9 8.5 25 8.5s25-3 25-8.6c0-2.4-2.8-4.7-7.8-6.2zm-3 6a33.8 33.8 0 0 1-14.5 2.6c-5.9 0-11.3-.9-14.3-2.4-1.2-.6-1.9-1.3-1.9-1.8 0-.6.9-1.4 2.3-2l1.1.4v1.2c0 1.3 1 2.3 2.3 2.3 1.3 0 2.3-1.1 2.4-2.4v-.1a52.3 52.3 0 0 0 22.1-1.6c1.4.6 2.2 1.4 2.2 2 0 .7-.6 1.3-1.7 1.8zm1.1-6.5-.3.2-1.7.9-.2.1c-3.1 1.3-8.2 2-13.5 2.1h-2.9l-1.7-.1h-.2l-3.3-.4v-3.8c2.5.4 5.3.6 8.2.6l5.2-.2v.4l.3 1.2a2.7 2.7 0 0 0 2.6 1.8c1.6 0 2.8-1.3 2.8-2.8v-1.4c1.3-.3 2.5-.7 3.4-1.1 1.2.6 1.9 1.3 1.9 1.8.1 0-.2.4-.6.7zM24.7 11.2c1.1 0 2.1 1 2.1 2.1v.1c-.1 1.1-1 2-2.1 2s-2.1-.9-2.1-2v-.2c.1-1 1-2 2.1-2zM21 14.3a3.8 3.8 0 0 0 3.7 2.8c.9 0 1.7-.3 2.3-.8l.1-.1.3-.2.3-.4.1-.1c.3-.4.5-.8.6-1.3 8.2.6 12.6 2.8 12.6 4.2 0 .6-.9 1.4-2.3 2.1-1.1.5-2.5 1-4.2 1.3a1 1 0 0 0-.7.9V25l-.1.3c-.1.3-.3.5-.6.6l-.4.1c-.6 0-1.1-.5-1.1-1.1v-1.5c0-.2-.1-.5-.3-.6s-.5-.3-.7-.2a57.4 57.4 0 0 1-14.9-.4c-.2-.1-.5 0-.7.2s-.3.5-.3.7v6.7c0 .3-.3.6-.6.6s-.6-.3-.6-.6v-7.4l-.2-.5-.4-.3-2.2-.8h-.1c-1.3-.7-2.1-1.4-2.1-2 0-1.7 4.4-3.9 12.5-4.5zm-10.6 7.9 1.4.6v3.7l-.7-.3c-.6-.2-1.1-.5-1.5-.8h-.1c-.7-.4-1-.9-1-1.3 0-.6.7-1.2 1.9-1.9zM25 38.8c-13.7 0-23.3-3.6-23.3-6.8 0-1.6 2.6-3.4 6.9-4.7a3.8 3.8 0 0 0-1.7 2.1v.6c0 1.3 1 2.4 2.9 3.5 3.2 1.6 8.8 2.6 15 2.6C31 36 37 34.9 40 33.2c1.8-.9 2.6-2 2.6-3.2v-.5l-.1-.4c-.2-.4-.5-.9-1-1.4l-.1-.1-.4-.3-.3-.2-.1-.1h.1c4.7 1.3 7.6 3.2 7.6 5 0 3.2-9.6 6.8-23.3 6.8z"></path></svg>