<svg xmlns="http://www.w3.org/2000/svg" viewBox="0 0 50 50"><path d="M42.5 10.6h-11V1.5c0-.5-.3-1-.7-1.2-.4-.3-1-.3-1.4-.1L6.9 10.7l-.1.1h-.1l-.2.2-.2.2v.1l-.1.2v37.2c-.2.6.5 1.3 1.3 1.3h35.1c.8 0 1.5-.7 1.5-1.5V12c-.1-.8-.8-1.4-1.6-1.4zM28.6 3.8v6.8H14l14.6-6.8zm12.5 43.3H8.9V13.5H41v33.6zm-9.6-8.3c0 .8-.7 1.5-1.5 1.5H20c-.8 0-1.5-.7-1.5-1.5s.7-1.5 1.5-1.5h10c.8.1 1.5.7 1.5 1.5zm-4.9-18.2c0-.8-.7-1.5-1.5-1.5s-1.5.7-1.5 1.5v.3c-5 .7-8.9 4.9-8.9 10.1 0 .8.7 1.5 1.5 1.5h17.5c.8 0 1.5-.7 1.5-1.5 0-5.1-3.8-9.3-8.6-10.1v-.3zm5.6 9H17.8c.7-3.3 3.6-5.8 7.2-5.8s6.5 2.4 7.2 5.8z"></path></svg>